<svg 
 xmlns="http://www.w3.org/2000/svg"
 xmlns:xlink="http://www.w3.org/1999/xlink"
 width="92px" height="92px">
<defs>
<linearGradient id="PSgrad_0" x1="0%" x2="0%" y1="100%" y2="0%">
  <stop offset="0%" stop-color="rgb(5,180,253)" stop-opacity="1" />
  <stop offset="100%" stop-color="rgb(0,155,255)" stop-opacity="1" />
</linearGradient>

</defs>
<path fill-rule="evenodd"  fill="rgb(128, 194, 105)"
 d="M45.000,-0.000 C79.690,-0.000 90.000,20.147 90.000,45.000 C90.000,69.853 79.690,90.000 45.000,90.000 C10.310,90.000 -0.000,69.853 -0.000,45.000 C-0.000,20.147 10.310,-0.000 45.000,-0.000 Z"/>
<path fill="url(#PSgrad_0)"
 d="M45.000,-0.000 C79.690,-0.000 90.000,20.147 90.000,45.000 C90.000,69.853 79.690,90.000 45.000,90.000 C10.310,90.000 -0.000,69.853 -0.000,45.000 C-0.000,20.147 10.310,-0.000 45.000,-0.000 Z"/>
<path fill-rule="evenodd"  stroke="rgb(255, 255, 255)" stroke-width="4px" stroke-linecap="butt" stroke-linejoin="round" fill="none"
 d="M29.000,39.000 L29.000,67.000 L35.881,67.340 C35.881,67.340 39.125,71.034 45.397,71.693 C51.669,72.352 63.000,71.000 63.000,71.000 C63.000,71.000 69.315,69.536 70.000,66.000 C70.685,62.464 73.000,42.234 73.000,42.234 C73.000,42.234 72.820,38.994 68.158,38.994 C63.497,38.994 55.000,39.000 55.000,39.000 C55.000,39.000 59.063,32.231 57.000,26.000 C54.937,19.769 41.722,16.697 42.000,26.000 C42.298,35.961 35.944,39.000 29.000,39.000 Z"/>
<path fill-rule="evenodd"  stroke="rgb(255, 255, 255)" stroke-width="4px" stroke-linecap="round" stroke-linejoin="round" fill="none"
 d="M25.000,41.000 L25.000,65.000 "/>
</svg>