<svg 
 xmlns="http://www.w3.org/2000/svg"
 xmlns:xlink="http://www.w3.org/1999/xlink"
 width="92px" height="92px">
<defs>
<linearGradient id="PSgrad_0" x1="0%" x2="0%" y1="100%" y2="0%">
  <stop offset="0%" stop-color="rgb(116,232,61)" stop-opacity="1" />
  <stop offset="100%" stop-color="rgb(38,214,145)" stop-opacity="1" />
</linearGradient>

</defs>
<path fill-rule="evenodd"  fill="rgb(128, 194, 105)"
 d="M45.000,-0.000 C79.690,-0.000 90.000,20.147 90.000,45.000 C90.000,69.853 79.690,90.000 45.000,90.000 C10.310,90.000 -0.000,69.853 -0.000,45.000 C-0.000,20.147 10.310,-0.000 45.000,-0.000 Z"/>
<path fill="url(#PSgrad_0)"
 d="M45.000,-0.000 C79.690,-0.000 90.000,20.147 90.000,45.000 C90.000,69.853 79.690,90.000 45.000,90.000 C10.310,90.000 -0.000,69.853 -0.000,45.000 C-0.000,20.147 10.310,-0.000 45.000,-0.000 Z"/>
<path fill-rule="evenodd"  stroke="rgb(255, 255, 255)" stroke-width="4px" stroke-linecap="butt" stroke-linejoin="miter" fill="none"
 d="M52.112,31.559 C54.692,29.910 56.611,28.924 57.467,27.929 C57.911,27.448 57.893,27.167 57.986,26.740 C58.074,26.322 58.074,25.890 57.986,25.472 C57.881,24.974 57.626,24.514 57.167,24.043 C56.501,23.432 55.830,23.303 55.387,23.303 L55.075,23.325 C54.708,23.376 54.351,23.478 54.013,23.627 C53.772,23.728 53.531,23.827 53.289,23.924 C53.287,23.924 53.194,23.959 52.913,23.963 C52.786,23.843 52.667,23.717 52.555,23.583 C52.287,23.263 51.990,22.968 51.665,22.704 C51.270,22.376 50.568,21.987 49.478,21.987 C48.636,21.987 47.886,22.224 47.307,22.676 C46.980,22.930 46.674,23.208 46.391,23.509 C46.257,23.650 46.117,23.785 45.972,23.914 C45.848,23.814 45.734,23.702 45.632,23.582 C45.376,23.274 45.094,22.988 44.789,22.727 C44.400,22.390 43.701,21.987 42.594,21.987 C41.506,21.987 40.806,22.376 40.411,22.701 C40.096,22.958 39.802,23.240 39.533,23.543 C39.403,23.690 39.265,23.830 39.120,23.963 C38.995,23.965 38.870,23.950 38.750,23.916 C38.514,23.826 38.279,23.733 38.046,23.636 C37.700,23.482 37.334,23.376 36.958,23.322 L36.645,23.301 C36.001,23.301 35.404,23.550 34.804,24.104 C34.441,24.466 34.179,24.914 34.045,25.406 C33.921,25.869 33.921,26.341 34.041,26.797 C34.143,27.180 34.304,27.546 34.518,27.881 L34.518,27.881 C34.745,28.239 35.031,28.558 35.364,28.825 C35.548,28.973 35.827,29.224 36.203,29.573 C36.616,29.964 38.593,31.184 39.015,31.559 C40.816,33.159 37.923,34.252 37.923,34.252 C35.731,35.500 33.727,37.043 31.971,38.838 C31.219,39.604 30.488,40.467 29.791,41.402 C29.091,42.342 28.447,43.403 27.879,44.554 C27.291,45.754 26.832,47.011 26.510,48.304 C26.161,49.723 25.989,51.179 25.999,52.639 C25.999,55.174 26.386,57.481 27.149,59.499 C27.912,61.531 29.180,63.345 30.835,64.775 C32.481,66.205 34.597,67.312 37.128,68.064 C39.612,68.804 42.610,69.178 46.043,69.178 C47.245,69.178 49.474,69.041 49.543,69.035 C49.695,69.014 53.299,68.541 54.896,68.064 C57.408,67.311 59.516,66.205 61.165,64.775 C62.823,63.345 64.091,61.531 64.854,59.497 C65.617,57.484 66.002,55.174 66.002,52.639 C66.002,51.102 65.823,49.642 65.468,48.292 L65.468,48.292 C65.135,47.010 64.680,45.761 64.108,44.562 C63.572,43.439 62.918,42.375 62.156,41.386 C61.475,40.503 60.752,39.653 59.989,38.838 C58.243,37.052 56.256,35.511 54.084,34.255 C54.084,34.255 50.112,32.872 52.112,31.559 Z"/>
<path fill-rule="evenodd"  stroke="rgb(255, 255, 255)" stroke-width="3px" stroke-linecap="round" stroke-linejoin="miter" fill="none"
 d="M39.409,46.991 L51.593,46.991 "/>
<path fill-rule="evenodd"  stroke="rgb(255, 255, 255)" stroke-width="3px" stroke-linecap="round" stroke-linejoin="miter" fill="none"
 d="M39.409,54.002 L51.593,54.002 "/>
<path fill-rule="evenodd"  stroke="rgb(255, 255, 255)" stroke-width="3px" stroke-linecap="round" stroke-linejoin="miter" fill="none"
 d="M46.873,47.335 L46.873,59.606 "/>
<path fill-rule="evenodd"  stroke="rgb(255, 255, 255)" stroke-width="3px" stroke-linecap="round" stroke-linejoin="miter" fill="none"
 d="M40.761,41.200 L46.873,47.335 "/>
<path fill-rule="evenodd"  stroke="rgb(255, 255, 255)" stroke-width="3px" stroke-linecap="round" stroke-linejoin="miter" fill="none"
 d="M52.028,42.953 L46.000,49.004 "/>
</svg>