<svg 
 xmlns="http://www.w3.org/2000/svg"
 xmlns:xlink="http://www.w3.org/1999/xlink"
 width="92px" height="92px">
<defs>
<linearGradient id="PSgrad_0" x1="0%" x2="0%" y1="0%" y2="100%">
  <stop offset="0%" stop-color="rgb(126,162,255)" stop-opacity="1" />
  <stop offset="100%" stop-color="rgb(111,46,220)" stop-opacity="1" />
</linearGradient>

</defs>
<path fill-rule="evenodd"  fill="rgb(128, 194, 105)"
 d="M45.000,-0.000 C79.690,-0.000 90.000,20.147 90.000,45.000 C90.000,69.853 79.690,90.000 45.000,90.000 C10.309,90.000 -0.000,69.853 -0.000,45.000 C-0.000,20.147 10.309,-0.000 45.000,-0.000 Z"/>
<path fill="url(#PSgrad_0)"
 d="M45.000,-0.000 C79.690,-0.000 90.000,20.147 90.000,45.000 C90.000,69.853 79.690,90.000 45.000,90.000 C10.309,90.000 -0.000,69.853 -0.000,45.000 C-0.000,20.147 10.309,-0.000 45.000,-0.000 Z"/>
<path fill-rule="evenodd"  stroke="rgb(255, 255, 255)" stroke-width="4px" stroke-linecap="square" stroke-linejoin="miter" fill="none"
 d="M55.000,25.000 C60.046,25.000 62.000,25.000 62.000,25.000 C65.472,25.000 68.000,28.141 68.000,31.702 L68.000,62.552 C68.000,66.113 65.186,69.000 61.714,69.000 L30.286,69.000 C26.814,69.000 24.000,66.113 24.000,62.552 L24.000,31.702 C24.000,28.141 26.529,25.000 30.000,25.000 C30.000,25.000 31.968,25.000 37.000,25.000 "/>
<path fill-rule="evenodd"  stroke="rgb(255, 255, 255)" stroke-width="4px" stroke-linecap="square" stroke-linejoin="miter" fill="none"
 d="M36.571,26.672 C36.571,21.330 40.793,17.000 46.000,17.000 C51.207,17.000 55.429,21.330 55.429,26.672 "/>
<path fill-rule="evenodd"  stroke="rgb(255, 255, 255)" stroke-width="4px" stroke-linecap="square" stroke-linejoin="miter" fill="none"
 d="M46.000,25.000 C47.105,25.000 48.000,25.895 48.000,27.000 C48.000,28.104 47.105,29.000 46.000,29.000 C44.895,29.000 44.000,28.104 44.000,27.000 C44.000,25.895 44.895,25.000 46.000,25.000 Z"/>
<path fill-rule="evenodd"  stroke="rgb(255, 255, 255)" stroke-width="3px" stroke-linecap="round" stroke-linejoin="miter" fill="none"
 d="M33.995,39.005 L58.000,39.005 "/>
<path fill-rule="evenodd"  stroke="rgb(255, 255, 255)" stroke-width="3px" stroke-linecap="round" stroke-linejoin="miter" fill="none"
 d="M33.995,49.000 L49.010,49.000 "/>
</svg>