<?xml version="1.0" encoding="utf-8"?>
<!-- Generator: Adobe Illustrator 22.0.1, SVG Export Plug-In . SVG Version: 6.00 Build 0)  -->
<svg version="1.1" id="图层_1" xmlns="http://www.w3.org/2000/svg" xmlns:xlink="http://www.w3.org/1999/xlink" x="0px" y="0px"
	 viewBox="0 0 118 142" style="enable-background:new 0 0 118 142;" xml:space="preserve">
<style type="text/css">
	.st0{fill:#FCAE28;}
	.st1{fill:#FFB128;}
	.st2{fill:url(#SVGID_1_);}
	.st3{fill:#FCD251;}
	.st4{fill:#F34B24;}
	.st5{fill:#F9CB31;}
	.st6{fill:#FA6148;}
	.st7{fill:#FCCD28;}
	.st8{fill:url(#SVGID_2_);}
</style>
<path class="st0" d="M116.3,23.6c-1.3-0.5-2.8,0.2-3.3,1.6l0,0c-0.5,1.3,0.2,2.8,1.5,3.3c1.3,0.5,2.8-0.2,3.3-1.6l0,0
	C118.3,25.5,117.6,24.1,116.3,23.6z M96.3,12.7c-1.3-0.5-2.8,0.2-3.3,1.6l0,0c-0.5,1.3,0.2,2.8,1.5,3.3c1.3,0.5,2.8-0.2,3.3-1.6l0,0
	C98.3,14.6,97.6,13.2,96.3,12.7z M72.6,3.5c-1.3-0.5-2.8,0.2-3.3,1.6l0,0c-0.5,1.3,0.2,2.8,1.5,3.3c1.3,0.5,2.8-0.2,3.3-1.6l0,0
	C74.6,5.5,73.9,4,72.6,3.5z M48.5,0.1c-1.3-0.5-2.8,0.2-3.3,1.6l0,0C44.8,3,45.5,4.5,46.8,5s2.8-0.2,3.3-1.6l0,0
	C50.5,2.1,49.9,0.6,48.5,0.1z"/>
<path class="st1" d="M114.8,28.9L98.4,48.3L48,30V5l0.4,0.2c0,0,1.4,6.6,8.2,9.1c6.8,2.4,12.5-3.4,13.6-6.1c1.6,0.5,1.8,0.6,1.8,0.6
	s1,8.6,8.2,11.1c7.1,2.5,13.4-3.4,13.4-3.4l1.8,0.6c0,0-2.3,7.1,4.5,11.9s14.3-0.4,14.3-0.4S114.8,28.9,114.8,28.9z"/>
<linearGradient id="SVGID_1_" gradientUnits="userSpaceOnUse" x1="-310.3741" y1="724.8851" x2="-309.3998" y2="724.6601" gradientTransform="matrix(66.793 0 0 -43.354 20772.7832 31448.5762)">
	<stop  offset="5.000000e-02" style="stop-color:#FFBE0F"/>
	<stop  offset="0.29" style="stop-color:#FDB941"/>
	<stop  offset="0.38" style="stop-color:#FEC342"/>
	<stop  offset="0.41" style="stop-color:#FFCC42"/>
	<stop  offset="0.55" style="stop-color:#FF8631"/>
	<stop  offset="1" style="stop-color:#FF3F1F"/>
</linearGradient>
<path class="st2" d="M114.8,28.9L98.4,48.3L48,30V5l0.4,0.2c0,0,1.4,6.6,8.2,9.1c6.8,2.4,12.5-3.4,13.6-6.1c1.6,0.5,1.8,0.6,1.8,0.6
	s1,8.6,8.2,11.1c7.1,2.5,13.4-3.4,13.4-3.4l1.8,0.6c0,0-2.3,7.1,4.5,11.9s14.3-0.4,14.3-0.4S114.8,28.9,114.8,28.9z"/>
<path class="st3" d="M76.7,22.6c-3.3-1.2-7,0.6-8.2,3.9c-1.2,3.4,0.5,7,3.8,8.2c3.3,1.2,6.9-0.6,8.2-3.9
	C81.7,27.4,80,23.8,76.7,22.6z"/>
<path class="st4" d="M76.1,24.5c-2.5-0.9-5.2,0.4-6.1,2.9c-0.9,2.4,0.4,5.2,2.8,6.1c0,0,0,0,0.1,0c2.5,0.9,5.2-0.4,6.1-2.9
	C79.9,28.1,78.6,25.4,76.1,24.5C76.2,24.5,76.1,24.5,76.1,24.5z"/>
<path class="st5" d="M94.1,32.5c-2.5-0.9-5.2,0.4-6.1,2.9c-0.9,2.5,0.4,5.2,2.9,6.1c2.5,0.9,5.2-0.4,6.1-2.9
	C97.9,36.1,96.6,33.3,94.1,32.5z"/>
<path class="st6" d="M93.6,34c-1.7-0.6-3.5,0.3-4.1,2c-0.6,1.6,0.2,3.4,1.9,4.1c0,0,0,0,0,0c1.7,0.6,3.5-0.3,4.1-2
	C96.1,36.4,95.3,34.6,93.6,34C93.6,34,93.6,34,93.6,34z"/>
<path class="st5" d="M61.1,20.3c-2.5-0.9-5.2,0.4-6.1,2.9c-0.9,2.4,0.3,5.1,2.8,6c0,0,0.1,0,0.1,0c2.5,0.9,5.2-0.4,6.1-2.9
	C64.8,23.9,63.6,21.2,61.1,20.3C61.1,20.3,61.1,20.3,61.1,20.3z"/>
<path class="st6" d="M60.6,21.8c-1.7-0.6-3.5,0.3-4.1,1.9c-0.6,1.6,0.2,3.4,1.9,4c0,0,0,0,0,0c1.7,0.6,3.5-0.3,4.1-1.9
	C63.1,24.2,62.2,22.4,60.6,21.8C60.6,21.8,60.6,21.8,60.6,21.8z"/>
<path class="st7" d="M99,46L48,28v3l50,18L99,46z"/>
<linearGradient id="SVGID_2_" gradientUnits="userSpaceOnUse" x1="-308.6804" y1="709.8234" x2="-307.9733" y2="710.5305" gradientTransform="matrix(50.987 0 0 -21.004 15793.8916 14954.9307)">
	<stop  offset="5.000000e-02" style="stop-color:#F9AB23"/>
	<stop  offset="0.24" style="stop-color:#EBC02A"/>
	<stop  offset="0.37" style="stop-color:#E8B92A"/>
	<stop  offset="0.41" style="stop-color:#E4B22A"/>
	<stop  offset="0.55" style="stop-color:#F27F26"/>
	<stop  offset="1" style="stop-color:#FF4C22"/>
</linearGradient>
<path class="st8" d="M99,46L48,28v3l50,18L99,46z"/>
</svg>
