<?xml version="1.0" encoding="utf-8"?>
<!-- Generator: Adobe Illustrator 22.0.1, SVG Export Plug-In . SVG Version: 6.00 Build 0)  -->
<svg version="1.1" id="图层_1" xmlns="http://www.w3.org/2000/svg" xmlns:xlink="http://www.w3.org/1999/xlink" x="0px" y="0px"
	 viewBox="0 0 42 42" style="enable-background:new 0 0 42 42;" xml:space="preserve">
<style type="text/css">
	.st0{fill:#FD3635;}
</style>
<path class="st0" d="M21,41c-10.4,0-20-0.7-20-5.6c0-3.9,6.3-8.3,14.1-9.8c1.4-0.4,2.4-2.1,0.8-3.8c-2.5-2.4-4.1-6.5-4.1-10.4
	C11.8,5.3,15.6,1,21,1s9.2,4.3,9.2,10.4c0,4-1.6,8.1-4.2,10.5c-1.3,1.3-0.6,3.4,0.9,3.6C34.7,27,41,31.4,41,35.3
	C41,40.3,31.4,41,21,41z"/>
</svg>
