<?xml version="1.0" encoding="utf-8"?>
<!-- Generator: Adobe Illustrator 22.0.1, SVG Export Plug-In . SVG Version: 6.00 Build 0)  -->
<svg version="1.1" id="图层_1" xmlns="http://www.w3.org/2000/svg" xmlns:xlink="http://www.w3.org/1999/xlink" x="0px" y="0px"
	 viewBox="0 0 43 49" style="enable-background:new 0 0 43 49;" xml:space="preserve">
<style type="text/css">
	.st0{fill:#FD3635;}
	.st1{fill:#FD3635;stroke:#FFFFFF;stroke-width:2;}
	.st2{fill:none;stroke:#FFFFFF;stroke-width:2;}
</style>
<path class="st0" d="M35.9,19h2c2.2,0,4,1.8,4,4v21c0,2.2-1.8,4-4,4H4c-2.2,0-4-1.8-4-4V23c0-2.2,1.8-4,4-4h3.1"/>
<path class="st1" d="M10.5,5h21c2.2,0,4,1.8,4,4v18L20.6,37L6.5,27V9C6.5,6.8,8.3,5,10.5,5z"/>
<path class="st2" d="M14,15h15 M14,20h15"/>
</svg>
