<?xml version="1.0" encoding="utf-8"?>
<!-- Generator: Adobe Illustrator 22.0.1, SVG Export Plug-In . SVG Version: 6.00 Build 0)  -->
<svg version="1.1" id="图层_1" xmlns="http://www.w3.org/2000/svg" xmlns:xlink="http://www.w3.org/1999/xlink" x="0px" y="0px"
	 viewBox="0 0 51 45" style="enable-background:new 0 0 51 45;" xml:space="preserve">
<style type="text/css">
	.st0{fill:#FFFFFF;stroke:#646464;stroke-width:1.9167;}
	.st1{fill:none;stroke:#646464;stroke-width:2;stroke-linecap:round;stroke-linejoin:round;}
	.st2{fill:#FFFFFF;stroke:#646464;stroke-width:2;stroke-linecap:round;stroke-linejoin:round;}
</style>
<path class="st0" d="M7.8,1.9h34.5c3.2,0,5.8,2.6,5.8,5.8v28.8c0,3.2-2.6,5.8-5.8,5.8H7.8c-3.2,0-5.8-2.6-5.8-5.8V7.6
	C2,4.4,4.6,1.9,7.8,1.9z M2,14h46"/>
<path class="st1" d="M9,21l4,15l9-15"/>
<path class="st2" d="M27,21l-3,16"/>
<path class="st1" d="M34,21l-3,16 M34,21h6c0,0,3.6-0.3,1,6c-1.9,4.5-7.9,4.1-8.9,4"/>
</svg>
