<?xml version="1.0" encoding="utf-8"?>
<!-- Generator: Adobe Illustrator 22.0.1, SVG Export Plug-In . SVG Version: 6.00 Build 0)  -->
<svg version="1.1" id="图层_1" xmlns="http://www.w3.org/2000/svg" xmlns:xlink="http://www.w3.org/1999/xlink" x="0px" y="0px"
	 viewBox="0 0 50 50" style="enable-background:new 0 0 50 50;" xml:space="preserve">
<style type="text/css">
	.st0{fill:#646464;}
</style>
<g>
	<path class="st0" d="M25,7c4.3,0,7.2,3.4,7.2,8.4c0,3.5-1.4,7-3.6,9l0,0l0,0c-1.2,1.2-1.6,2.8-1.1,4.4c0.5,1.4,1.6,2.4,3,2.6
		C38.3,33,43,37,43,39.3c0,2.5-6.1,3.7-18,3.7c-4.3,0-9.7-0.1-13.5-0.9C9.5,41.6,7,40.8,7,39.4c0-2.3,4.7-6.3,12.5-7.8l0.1,0l0.1,0
		c1.4-0.4,2.5-1.5,2.9-2.9c0.4-1.4,0-3-1.2-4.2l0,0l0,0c-2.1-2-3.5-5.6-3.5-9C17.8,10.4,20.7,7,25,7 M25,5c-5.4,0-9.2,4.3-9.2,10.4
		c0,3.9,1.6,8,4.1,10.4c1.6,1.7,0.6,3.4-0.8,3.8C11.3,31.1,5,35.5,5,39.4c0,4.9,9.6,5.6,20,5.6s20-0.7,20-5.7
		c0-3.9-6.3-8.3-14.1-9.8c-1.5-0.2-2.2-2.3-0.9-3.6c2.6-2.4,4.2-6.5,4.2-10.5C34.2,9.3,30.4,5,25,5L25,5z"/>
</g>
</svg>
