<?xml version="1.0" encoding="utf-8"?>
<!-- Generator: Adobe Illustrator 22.0.1, SVG Export Plug-In . SVG Version: 6.00 Build 0)  -->
<svg version="1.1" id="图层_1" xmlns="http://www.w3.org/2000/svg" xmlns:xlink="http://www.w3.org/1999/xlink" x="0px" y="0px"
	 viewBox="0 0 45 46" style="enable-background:new 0 0 45 46;" xml:space="preserve">
<style type="text/css">
	.st0{fill:none;stroke:#646464;stroke-width:1.9048;}
	.st1{fill:none;stroke:#646464;stroke-width:2;}
</style>
<path class="st0" d="M36.2,16h2c2.1,0,3.8,1.7,3.8,3.8c0,0,0,0,0,0v19.4c0,2.1-1.7,3.8-3.8,3.8c0,0,0,0,0,0H5.8
	C3.7,43,2,41.3,2,39.2V19.8C2,17.7,3.7,16,5.8,16h1.9 M14,10.3h16 M14,15.3h16"/>
<path class="st1" d="M11.5,1h21c2.2,0,4,1.8,4,4v18l-14.9,9.4L7.5,23V5C7.5,2.8,9.3,1,11.5,1z"/>
</svg>
