<svg 
 xmlns="http://www.w3.org/2000/svg"
 xmlns:xlink="http://www.w3.org/1999/xlink"
 width="56px" height="58px">
<path fill-rule="evenodd"  fill="rgb(253, 54, 53)"
 d="M52.000,58.000 L4.000,58.000 C1.791,58.000 0.000,56.209 0.000,54.000 L0.000,4.000 C0.000,1.791 1.791,-0.000 4.000,-0.000 L52.000,-0.000 C54.209,-0.000 56.000,1.791 56.000,4.000 L56.000,54.000 C56.000,56.209 54.209,58.000 52.000,58.000 ZM12.000,41.000 L38.000,41.000 C39.105,41.000 40.000,40.105 40.000,39.000 C40.000,37.895 39.105,37.000 38.000,37.000 L12.000,37.000 C10.895,37.000 10.000,37.895 10.000,39.000 C10.000,40.105 10.895,41.000 12.000,41.000 ZM44.000,14.000 L12.000,14.000 C10.895,14.000 10.000,14.895 10.000,16.000 C10.000,17.105 10.895,18.000 12.000,18.000 L44.000,18.000 C45.105,18.000 46.000,17.105 46.000,16.000 C46.000,14.895 45.105,14.000 44.000,14.000 ZM44.000,25.000 L12.000,25.000 C10.895,25.000 10.000,25.895 10.000,27.000 C10.000,28.105 10.895,29.000 12.000,29.000 L44.000,29.000 C45.105,29.000 46.000,28.105 46.000,27.000 C46.000,25.895 45.105,25.000 44.000,25.000 Z"/>
</svg>