<svg 
 xmlns="http://www.w3.org/2000/svg"
 xmlns:xlink="http://www.w3.org/1999/xlink"
 width="56px" height="57px">
<path fill-rule="evenodd"  fill="rgb(3, 168, 254)"
 d="M54.000,44.000 L30.000,44.000 L30.000,55.000 C30.000,56.105 29.105,57.000 28.000,57.000 C26.895,57.000 26.000,56.105 26.000,55.000 L26.000,44.000 L2.000,44.000 C0.895,44.000 -0.000,43.105 -0.000,42.000 C-0.000,40.895 0.895,40.000 2.000,40.000 L54.000,40.000 C55.105,40.000 56.000,40.895 56.000,42.000 C56.000,43.105 55.105,44.000 54.000,44.000 ZM3.007,33.491 L3.007,10.708 C3.007,4.897 7.799,-0.000 13.717,-0.000 L42.276,-0.000 C48.194,-0.000 52.985,4.898 52.985,10.708 L52.985,36.996 L3.007,36.996 L3.007,33.491 ZM29.665,27.115 L35.442,27.115 C38.014,27.115 39.965,26.405 41.307,24.978 C42.583,23.598 43.231,21.667 43.231,19.172 C43.231,16.657 42.603,14.726 41.347,13.385 C40.012,11.945 38.068,11.235 35.489,11.235 L29.665,11.235 L29.665,27.115 ZM15.610,27.115 L17.113,23.021 L23.987,23.021 L25.490,27.115 L28.108,27.115 L21.943,11.235 L19.171,11.235 L13.012,27.115 L15.610,27.115 ZM20.600,13.830 L23.245,21.016 L17.848,21.016 L20.513,13.830 L20.600,13.830 ZM40.839,19.172 C40.839,21.176 40.372,22.642 39.450,23.598 C38.508,24.553 37.013,25.045 34.995,25.045 L32.110,25.045 L32.110,13.299 L35.042,13.299 C37.059,13.299 38.535,13.764 39.477,14.726 C40.372,15.661 40.839,17.128 40.839,19.172 Z"/>
</svg>