<svg 
 xmlns="http://www.w3.org/2000/svg"
 xmlns:xlink="http://www.w3.org/1999/xlink"
 width="58px" height="56px">
<path fill-rule="evenodd"  fill="rgb(253, 54, 53)"
 d="M50.261,0.020 L7.744,0.020 C3.488,0.020 0.020,3.369 0.020,7.480 L0.020,48.535 C0.020,52.645 3.497,55.995 7.744,55.995 L50.261,55.995 C54.518,55.995 57.985,52.636 57.985,48.535 L57.985,7.480 C57.985,3.369 54.508,0.020 50.261,0.020 ZM41.351,34.301 C40.935,34.694 40.390,34.891 39.844,34.891 C39.298,34.891 38.752,34.694 38.336,34.301 L31.195,27.556 L31.195,41.563 C31.195,42.675 30.241,43.576 29.064,43.576 C27.887,43.576 26.932,42.675 26.932,41.563 L26.932,27.498 L19.730,34.301 C19.314,34.694 18.768,34.891 18.222,34.891 C17.677,34.891 17.131,34.694 16.715,34.301 C15.883,33.514 15.883,32.240 16.715,31.453 L27.495,21.271 C27.919,20.871 28.477,20.676 29.033,20.683 C29.043,20.683 29.053,20.681 29.063,20.681 L29.064,20.681 C29.134,20.682 29.204,20.685 29.274,20.692 C29.306,20.696 29.337,20.700 29.368,20.705 C29.406,20.710 29.442,20.714 29.480,20.721 C29.516,20.728 29.551,20.737 29.586,20.746 C29.618,20.753 29.650,20.760 29.682,20.768 C29.717,20.779 29.749,20.790 29.784,20.802 C29.816,20.813 29.848,20.823 29.879,20.835 C29.911,20.848 29.941,20.862 29.972,20.876 C30.004,20.890 30.036,20.904 30.068,20.920 C30.098,20.935 30.126,20.952 30.156,20.969 C30.185,20.985 30.217,21.002 30.247,21.021 C30.279,21.041 30.309,21.063 30.339,21.085 C30.364,21.103 30.391,21.119 30.415,21.138 C30.469,21.180 30.521,21.225 30.571,21.271 L41.351,31.453 C42.183,32.240 42.183,33.514 41.351,34.301 ZM42.326,16.049 L15.679,16.049 C14.476,16.049 13.501,15.147 13.501,14.035 C13.501,12.924 14.476,12.022 15.679,12.022 L42.326,12.022 C43.530,12.022 44.505,12.924 44.505,14.035 C44.505,15.147 43.530,16.049 42.326,16.049 Z"/>
</svg>