<svg 
 xmlns="http://www.w3.org/2000/svg"
 xmlns:xlink="http://www.w3.org/1999/xlink"
 width="60px" height="45px">
<path fill-rule="evenodd"  fill="rgb(2, 199, 94)"
 d="M15.019,26.989 C18.669,27.009 21.974,24.814 23.373,21.446 C24.773,18.084 24.009,14.222 21.429,11.626 C18.863,9.053 14.966,8.277 11.587,9.668 C8.209,11.064 6.012,14.342 6.012,17.985 C6.012,22.950 10.043,26.989 15.019,26.989 L15.019,26.989 ZM57.241,33.549 C55.535,31.519 53.337,29.947 50.848,28.983 C47.068,27.573 43.048,26.896 39.008,26.989 C34.966,26.878 30.943,27.556 27.169,28.983 C24.679,29.948 22.481,31.519 20.775,33.549 C19.133,35.515 18.167,37.945 18.015,40.488 C18.015,42.970 20.031,44.981 22.520,44.981 L55.497,44.981 C57.985,44.981 60.000,42.970 60.000,40.488 C59.866,37.941 58.898,35.508 57.241,33.549 L57.241,33.549 ZM39.026,24.000 C43.893,24.018 48.288,21.101 50.157,16.608 C52.028,12.133 51.011,6.951 47.561,3.527 C44.148,0.086 38.949,-0.948 34.449,0.918 C29.946,2.765 27.022,7.151 27.022,12.006 C27.022,18.600 32.380,23.982 39.026,24.000 L39.026,24.000 ZM20.031,31.247 C20.702,29.852 19.432,29.708 18.614,29.671 C18.106,29.635 7.210,29.055 1.998,35.106 C0.707,36.618 -0.000,38.531 0.001,40.506 C0.001,42.989 2.016,45.000 4.504,45.000 L14.693,45.000 C16.164,45.000 16.488,44.274 16.200,43.495 C13.857,37.334 19.976,31.392 20.031,31.247 L20.031,31.247 Z"/>
</svg>