<svg 
 xmlns="http://www.w3.org/2000/svg"
 xmlns:xlink="http://www.w3.org/1999/xlink"
 width="44px" height="44px">
<path fill-rule="evenodd"  fill="rgb(46, 218, 125)"
 d="M21.705,0.001 C9.558,0.162 -0.161,10.145 0.001,22.296 C0.163,34.438 10.145,44.161 22.293,43.997 C34.441,43.835 44.159,33.853 43.997,21.701 C43.837,9.556 33.854,-0.162 21.705,0.001 L21.705,0.001 ZM24.144,7.333 C26.380,7.333 27.039,8.629 27.039,10.113 C27.039,11.967 25.553,13.681 23.022,13.681 C20.904,13.681 19.896,12.615 19.956,10.855 C19.957,9.371 21.200,7.333 24.144,7.333 L24.144,7.333 ZM18.410,35.750 C16.881,35.750 15.762,34.821 16.831,30.741 L18.583,23.511 C18.887,22.350 18.938,21.886 18.583,21.886 C18.127,21.886 16.141,22.689 14.968,23.477 L14.205,22.225 C17.924,19.121 22.200,17.300 24.032,17.300 C25.559,17.300 25.813,19.108 25.050,21.888 L23.042,29.493 C22.688,30.838 22.841,31.301 23.195,31.301 C23.652,31.301 25.156,30.746 26.633,29.583 L27.496,30.744 C23.883,34.357 19.940,35.750 18.410,35.750 L18.410,35.750 Z"/>
</svg>