<svg 
 xmlns="http://www.w3.org/2000/svg"
 xmlns:xlink="http://www.w3.org/1999/xlink"
 width="40px" height="36px">
<path fill-rule="evenodd"  fill="rgb(4, 122, 255)"
 d="M35.676,-0.000 L4.324,-0.000 C1.936,-0.000 0.000,1.954 0.000,4.364 L0.000,31.636 C0.000,34.046 1.936,36.000 4.324,36.000 L35.676,36.000 C38.063,36.000 40.000,34.046 40.000,31.636 L40.000,4.364 C40.000,1.954 38.063,-0.000 35.676,-0.000 L35.676,-0.000 ZM28.019,19.775 L17.570,26.456 C16.846,26.918 15.979,26.963 15.207,26.580 C14.433,26.198 13.985,25.500 13.985,24.681 L13.985,11.320 C13.985,10.501 14.432,9.801 15.205,9.419 C15.979,9.037 16.846,9.082 17.569,9.544 L28.019,16.224 C28.665,16.639 29.019,17.267 29.019,18.001 C29.019,18.736 28.665,19.362 28.019,19.775 L28.019,19.775 Z"/>
</svg>