<svg 
 xmlns="http://www.w3.org/2000/svg"
 xmlns:xlink="http://www.w3.org/1999/xlink"
 width="62px" height="62px">
<path fill-rule="evenodd"  fill="rgb(255, 178, 10)"
 d="M31.000,0.000 C13.876,0.000 0.000,13.876 0.000,31.001 C0.000,48.124 13.876,62.000 31.000,62.000 C48.124,62.000 61.999,48.124 61.999,31.001 C61.999,13.876 48.124,0.000 31.000,0.000 L31.000,0.000 Z"/>
<path fill-rule="evenodd"  fill="rgb(255, 255, 255)"
 d="M46.840,46.817 C46.187,47.187 45.615,47.269 45.125,47.084 C44.736,46.960 44.409,46.735 44.184,46.385 C43.960,46.036 43.674,45.378 43.306,44.433 C42.939,43.488 42.367,42.337 41.590,41.001 C40.813,39.665 40.241,38.720 39.874,38.186 C39.506,37.652 39.241,37.220 39.077,36.892 C38.914,36.583 38.873,36.234 38.934,35.885 C38.954,35.679 39.098,35.371 39.343,34.960 C39.588,34.569 40.037,34.323 40.691,34.220 C41.039,34.179 41.447,34.241 41.896,34.425 C42.346,34.610 43.184,35.679 44.389,37.611 C45.594,39.542 46.473,41.228 47.065,42.666 C47.637,44.084 47.924,44.926 47.924,45.193 C47.862,45.912 47.494,46.447 46.840,46.817 ZM41.181,32.823 L34.439,32.823 C31.232,32.823 29.638,31.385 29.638,28.487 L29.638,20.781 C29.638,20.350 29.719,19.795 29.883,19.096 C30.046,18.398 30.455,17.802 31.130,17.308 C31.804,16.815 32.907,16.569 34.439,16.569 L41.181,16.569 C43.735,16.569 45.125,17.144 45.370,18.315 C45.615,19.487 45.738,20.288 45.738,20.760 L45.738,28.487 C45.738,31.385 44.225,32.823 41.181,32.823 ZM41.876,21.130 C41.876,20.822 41.794,20.617 41.631,20.473 C41.467,20.350 41.181,20.288 40.793,20.288 L34.827,20.288 C34.276,20.288 33.949,20.411 33.887,20.638 C33.827,20.863 33.786,21.109 33.786,21.377 L33.786,27.994 C33.786,28.446 33.847,28.734 33.969,28.857 C34.031,28.980 34.337,29.042 34.807,29.042 L40.568,29.042 L41.631,28.836 C41.794,28.857 41.876,28.610 41.876,28.055 L41.876,21.130 ZM28.168,37.385 C27.574,37.754 27.064,37.816 26.615,37.570 C26.390,37.467 26.165,37.282 25.982,36.974 L25.266,35.617 L24.429,34.446 L24.429,46.241 C24.429,47.330 23.795,47.885 22.509,47.926 C21.241,47.967 20.588,47.412 20.588,46.241 L20.588,36.850 C18.790,39.625 17.523,41.104 16.808,41.268 C16.093,41.433 15.481,41.330 14.970,40.981 C14.152,40.467 13.886,39.707 14.193,38.720 C14.316,38.330 14.765,37.693 15.541,36.830 C16.317,35.967 16.931,35.289 17.340,34.775 C17.768,34.261 18.239,33.459 18.770,32.350 C19.301,31.240 19.872,29.803 20.444,28.035 L15.990,28.035 C15.541,28.035 15.154,27.850 14.806,27.501 C14.458,27.151 14.295,26.658 14.356,26.062 C14.377,25.528 14.561,25.076 14.909,24.748 C15.255,24.418 15.644,24.254 16.072,24.254 L20.567,24.254 L20.567,20.473 C19.975,20.596 19.198,20.720 18.218,20.843 C17.237,20.966 16.583,21.008 16.297,20.966 C15.439,20.925 14.929,20.576 14.786,19.898 C14.643,19.240 14.602,18.747 14.643,18.459 C14.704,17.822 14.990,17.432 15.460,17.288 C15.929,17.144 16.890,17.062 18.381,17.001 C19.852,16.959 21.712,16.610 23.918,15.993 C26.145,15.377 27.452,15.335 27.841,15.869 C28.228,16.405 28.433,16.959 28.433,17.493 C28.413,18.007 28.290,18.398 28.065,18.665 C27.841,18.932 26.615,19.322 24.408,19.857 L24.408,24.274 L26.901,24.274 C27.329,24.274 27.738,24.460 28.147,24.809 C28.556,25.158 28.760,25.610 28.760,26.185 C28.740,26.987 28.495,27.501 28.004,27.727 C27.534,27.952 27.146,28.055 26.901,28.055 L24.408,28.055 L24.408,32.083 C24.919,31.364 25.491,31.014 26.124,31.097 C26.737,31.200 27.370,31.713 28.024,32.679 C28.679,33.645 29.067,34.343 29.210,34.755 C29.332,35.186 29.352,35.638 29.230,36.111 C29.107,36.583 28.760,37.014 28.168,37.385 ZM28.290,42.337 C28.720,41.864 29.291,41.001 30.046,39.748 C30.803,38.495 31.334,37.426 31.682,36.543 C32.029,35.659 32.356,35.043 32.661,34.713 C32.968,34.364 33.520,34.241 34.296,34.343 C34.726,34.405 35.113,34.631 35.461,34.980 C35.809,35.330 35.992,35.720 36.013,36.152 C36.013,36.562 35.910,37.077 35.645,37.693 C35.380,38.248 34.909,39.172 34.214,40.405 C33.520,41.659 32.601,43.180 31.457,44.967 C30.313,46.775 29.189,47.618 28.045,47.494 C27.391,47.454 26.921,47.207 26.615,46.775 C26.329,46.344 26.165,45.954 26.124,45.584 C26.083,45.235 26.288,44.741 26.737,44.145 L28.290,42.337 Z"/>
</svg>