<svg id="图层_1" data-name="图层 1" xmlns="http://www.w3.org/2000/svg" viewBox="0 0 54 62"><defs><style>.cls-1{fill:#fd3635;}</style></defs><title>my_icon_hongbao</title><path class="cls-1" d="M51.19,63.5H13.81A8.29,8.29,0,0,1,5.5,55.23V13.9l24.92,8.27h4.16L59.5,13.9V55.23a8.29,8.29,0,0,1-8.31,8.27ZM34.68,42.7h6c1.51,0,2-.77,2.07-1.71a2.45,2.45,0,0,0-2.11-2.38h-6V37.15s4.58-4.65,5.77-5.72,1.48-1.92.75-2.79a2.11,2.11,0,0,0-3,0c-1,.8-5.64,5.12-5.64,5.12s-4-4.13-4.88-4.95-2.44-1.47-3.33-.47a2.15,2.15,0,0,0,.38,2.93c.58.57,5.6,5.85,5.6,5.85v1.59H24c-.93,0-1.75,1.64-1.72,2.52A1.63,1.63,0,0,0,24,42.74l6.27,0,0,4.43H23.72A1.93,1.93,0,0,0,22,48.94,2,2,0,0,0,23.72,51h6.5s0,1.52,0,2.15a2,2,0,0,0,2.26,2,2.07,2.07,0,0,0,2.12-1.94c0-.76,0-2.22,0-2.22H41a1.91,1.91,0,0,0,1.74-2.06c0-1-.67-1.84-2.22-1.84H34.64ZM34.58,18H30.42L5.5,9.77A8.29,8.29,0,0,1,13.81,1.5H51.19A8.29,8.29,0,0,1,59.5,9.77Zm0,0" transform="translate(-5.5 -1.5)"/></svg>