<svg id="图层_1" data-name="图层 1" xmlns="http://www.w3.org/2000/svg" viewBox="0 0 60 62"><defs><style>.cls-1{fill:#03a8fe;fill-rule:evenodd;}</style></defs><title>my_icon_guanguang</title><path class="cls-1" d="M39,16H35.9V28.74H39a6.43,6.43,0,0,0,4.78-1.57,6.77,6.77,0,0,0,1.49-4.82c0-2.22-.5-3.82-1.46-4.83S41.21,16,39,16Zm-15.56.57-2.86,7.82h5.79l-2.84-7.82ZM59.5,45H3.5a2,2,0,0,0-2,2v.35a2,2,0,0,0,2,2H29.36V61.5a2,2,0,0,0,2,2h.28a2,2,0,0,0,2-2V49.36H59.5a2,2,0,0,0,2-2V47A2,2,0,0,0,59.5,45ZM58.27,13.15A11.63,11.63,0,0,0,46.8,1.5H16.2A11.64,11.64,0,0,0,4.72,13.15V41.74H58.27ZM28.81,31,27.2,26.54H19.84L18.23,31H15.44L22,13.72h3L31.62,31Zm17-2.32C44.32,30.22,42.23,31,39.47,31H33.28V13.72h6.24c2.77,0,4.85.77,6.28,2.34a8.94,8.94,0,0,1,2,6.29A9.07,9.07,0,0,1,45.76,28.67Z" transform="translate(-1.5 -1.5)"/></svg>