<?xml version="1.0" encoding="utf-8"?>
<!-- Generator: Adobe Illustrator 22.0.1, SVG Export Plug-In . SVG Version: 6.00 Build 0)  -->
<svg version="1.1" id="图层_1" xmlns="http://www.w3.org/2000/svg" xmlns:xlink="http://www.w3.org/1999/xlink" x="0px" y="0px"
	 viewBox="0 0 60 60" style="enable-background:new 0 0 60 60;" xml:space="preserve">
<style type="text/css">
	.st0{fill:#02C75E;}
</style>
<g>
	<path class="st0" d="M12,45.6l43.1,0c1.2,0,2.1-1,2.1-2.1V8c0-4.4-3.6-8-8-8H30.1v24.3c0,0.4-0.5,0.6-0.8,0.4l-7.4-5.3
		c-0.2-0.1-0.4-0.1-0.6,0l-7.4,5.3c-0.3,0.2-0.8,0-0.8-0.4V0h-2.3c-4.4,0-8,3.6-8,8v44c0,4.4,3.6,8,8,8h44.7c1,0,1.8-0.8,1.8-1.8v0
		c0-1-0.8-1.8-1.8-1.8H11.8c-3.4,0-6-3.1-5.3-6.5C7,47.3,9.4,45.6,12,45.6z"/>
	<path class="st0" d="M16.1,0.4v18.1c0,0.4,0.5,0.6,0.8,0.4l4.4-3.2c0.2-0.1,0.4-0.1,0.6,0l4.4,3.2c0.3,0.2,0.8,0,0.8-0.4V0.4
		c0-0.2-0.1-0.3-0.2-0.4H16.3C16.2,0.1,16.1,0.2,16.1,0.4z"/>
</g>
</svg>
