<?xml version="1.0" encoding="utf-8"?>
<!-- Generator: Adobe Illustrator 22.0.1, SVG Export Plug-In . SVG Version: 6.00 Build 0)  -->
<svg version="1.1" id="图层_1" xmlns="http://www.w3.org/2000/svg" xmlns:xlink="http://www.w3.org/1999/xlink" x="0px" y="0px"
	 viewBox="0 0 60 60" style="enable-background:new 0 0 60 60;" xml:space="preserve">
<style type="text/css">
	.st0{fill:#2B88F1;}
</style>
<path class="st0" d="M55.1,60H4.6C3.2,60,2,58.8,2,57.2V10.8C2,9.3,3.2,8,4.6,8h5.2v2.8c0,3.6,2.7,6.5,6.1,6.5
	c3.4,0,6.1-2.9,6.1-6.5V8h15.7v2.8c0,3.6,2.7,6.5,6.1,6.5c3.4,0,6.1-2.9,6.1-6.5V8h5.2c1.4,0,2.6,1.2,2.6,2.8v46.4
	C57.7,58.8,56.5,60,55.1,60z M52.5,22.9H7.2v31.6h45.3V22.9z M21.1,35.9c0.7,0,1.4,0.3,1.8,0.8l4.2,4.5l10.3-11
	c0.5-0.5,1.1-0.8,1.8-0.8c1.4,0,2.6,1.2,2.6,2.8c0,0.8-0.3,1.5-0.8,2l-12.2,13c-0.5,0.5-1.1,0.8-1.8,0.8c-0.7,0-1.4-0.3-1.8-0.8
	l-6.1-6.5c-0.5-0.5-0.8-1.2-0.8-2C18.5,37.1,19.7,35.9,21.1,35.9z M43.8,13.6c-1.4,0-2.6-1.2-2.6-2.8V3.4c0-1.5,1.2-2.8,2.6-2.8
	c1.4,0,2.6,1.2,2.6,2.8v7.4C46.4,12.3,45.2,13.6,43.8,13.6z M15.9,13.6c-1.4,0-2.6-1.2-2.6-2.8V3.4c0-1.5,1.2-2.8,2.6-2.8
	c1.4,0,2.6,1.2,2.6,2.8v7.4C18.5,12.3,17.4,13.6,15.9,13.6z"/>
</svg>
