<?xml version="1.0" encoding="utf-8"?>
<!-- Generator: Adobe Illustrator 22.0.1, SVG Export Plug-In . SVG Version: 6.00 Build 0)  -->
<svg version="1.1" id="图层_1" xmlns="http://www.w3.org/2000/svg" xmlns:xlink="http://www.w3.org/1999/xlink" x="0px" y="0px"
	 viewBox="0 0 60 60" style="enable-background:new 0 0 60 60;" xml:space="preserve">
<style type="text/css">
	.st0{fill-rule:evenodd;clip-rule:evenodd;fill:#FD3635;}
</style>
<g>
	<g>
		<path class="st0" d="M50.9,4.9c-0.3-1-1.5-1.6-2.6-1.3l-41.8,11h47.3L50.9,4.9z M44.2,45.3L44.2,45.3c0,0-0.1,0-0.1,0
			c-5,0-9.1-3.8-9.1-8.5c0-4.7,4.1-8.5,9.1-8.5c0,0,0.1,0,0.1,0v0H60v-8.8c0-1.3-1.1-2.3-2.5-2.3h-55c-1.4,0-2.5,1-2.5,2.3v34.7
			c0,1.3,1.1,2.3,2.5,2.3h55c1.4,0,2.5-1,2.5-2.3v-8.8H44.2z M38.7,36.8c0,2.8,2.4,5,5.4,5c3,0,5.4-2.2,5.4-5c0-2.8-2.4-5-5.4-5
			C41.2,31.8,38.7,34.1,38.7,36.8z"/>
	</g>
</g>
</svg>
