<svg xmlns="http://www.w3.org/2000/svg" width="43" height="40">
    <path fill="#F8F8F8" fill-rule="evenodd" d="M34 20c-6.075 0-11 4.925-11 11 0 2.217.662 4.277 1.79 6.005H3.355a3.352 3.352 0 0 1-3.349-3.348V3.347A3.354 3.354 0 0 1 3.353-.004h30.27a3.363 3.363 0 0 1 3.371 3.351v17.076A10.998 10.998 0 0 0 34 20zm-22 4h8v-2h-8v2zM9 8H7v2h2V8zm0 7H7v2h2v-2zm0 7H7v2h2v-2zM30 8H12v2h18V8zm0 7H12v2h18v-2z"/>
    <path fill="#F8F8F8" fill-rule="evenodd" d="M34 40a9 9 0 0 1-9-9 9 9 0 1 1 9 9zm4-9h-3v-5h-2v7h5v-2z"/>
</svg>
