<svg 
 xmlns="http://www.w3.org/2000/svg"
 xmlns:xlink="http://www.w3.org/1999/xlink"
 width="38px" height="38px">
<path fill-rule="evenodd"  opacity="0" fill="rgb(255, 182, 182)"
 d="M-0.000,-0.000 L38.000,-0.000 L38.000,38.000 L-0.000,38.000 L-0.000,-0.000 Z"/>
<path fill-rule="evenodd"  fill="rgb(128, 128, 128)"
 d="M29.627,30.916 L33.265,35.518 L31.696,36.758 L28.070,32.170 C26.329,33.324 24.244,34.000 22.000,34.000 C15.925,34.000 11.000,29.075 11.000,23.000 C11.000,16.925 15.925,12.000 22.000,12.000 C28.075,12.000 33.000,16.925 33.000,23.000 C33.000,26.111 31.703,28.915 29.627,30.916 ZM22.000,14.000 C17.029,14.000 13.000,18.029 13.000,23.000 C13.000,27.971 17.029,32.000 22.000,32.000 C23.776,32.000 25.427,31.479 26.821,30.591 L26.735,30.482 L28.304,29.242 L28.384,29.342 C30.000,27.715 31.000,25.475 31.000,23.000 C31.000,18.029 26.971,14.000 22.000,14.000 ZM22.114,19.067 C19.871,19.067 18.047,20.922 18.047,23.201 C18.047,23.776 17.588,24.242 17.023,24.242 C16.458,24.242 15.999,23.776 15.999,23.201 C15.999,19.774 18.742,16.986 22.114,16.986 C22.679,16.986 23.138,17.452 23.138,18.027 C23.138,18.601 22.679,19.067 22.114,19.067 ZM31.000,12.000 C30.171,12.000 30.000,11.049 30.000,9.000 C30.000,7.082 29.264,7.000 28.000,7.000 C27.297,7.000 8.808,7.000 8.000,7.000 C6.232,7.000 6.000,9.000 6.000,9.000 L6.000,31.000 C6.000,31.000 5.937,33.000 8.000,33.000 C9.244,33.000 11.232,33.000 12.000,33.000 C12.707,33.000 12.997,33.458 13.000,34.000 C13.005,34.788 12.613,35.000 12.000,35.000 C10.147,35.000 7.955,35.000 7.000,35.000 C7.000,35.000 4.000,34.553 4.000,31.000 C4.000,26.111 4.000,8.638 4.000,9.000 C4.000,5.102 7.075,5.000 7.075,5.000 L28.996,5.000 C28.996,5.000 31.975,5.131 31.975,7.659 C31.975,8.524 32.000,10.000 32.000,10.000 C32.000,11.557 31.768,12.000 31.000,12.000 Z"/>
</svg>