<svg 
 xmlns="http://www.w3.org/2000/svg"
 xmlns:xlink="http://www.w3.org/1999/xlink"
 width="38px" height="38px">
<path fill-rule="evenodd"  opacity="0.012" fill="rgb(255, 182, 182)"
 d="M-0.000,-0.000 L38.000,-0.000 L38.000,38.000 L-0.000,38.000 L-0.000,-0.000 Z"/>
<path fill-rule="evenodd"  fill="rgb(128, 128, 128)"
 d="M31.028,7.978 C27.816,4.768 23.545,3.000 19.004,3.000 C14.462,3.000 10.193,4.768 6.982,7.978 C3.770,11.189 2.001,15.458 2.001,20.000 C2.000,24.541 3.768,28.811 6.979,32.024 C10.191,35.233 14.460,37.000 19.001,37.000 C23.543,37.000 27.814,35.231 31.028,32.020 C37.657,25.393 37.657,14.607 31.028,7.978 L31.028,7.978 ZM29.653,30.645 C26.806,33.489 23.024,35.055 19.001,35.055 C14.979,35.055 11.198,33.490 8.355,30.649 C5.511,27.804 3.945,24.022 3.946,20.000 C3.946,15.978 5.512,12.197 8.357,9.353 C11.200,6.510 14.982,4.944 19.004,4.944 C23.026,4.944 26.808,6.510 29.653,9.352 C35.523,15.224 35.523,24.776 29.653,30.645 L29.653,30.645 ZM27.559,19.028 L19.973,19.028 L19.973,11.444 C19.973,10.907 19.538,10.471 19.000,10.471 C18.463,10.471 18.028,10.907 18.028,11.444 L18.028,19.028 L10.443,19.028 C9.906,19.028 9.470,19.463 9.470,20.000 C9.470,20.537 9.906,20.972 10.443,20.972 L18.028,20.972 L18.028,28.556 C18.028,29.093 18.463,29.529 19.000,29.529 C19.538,29.529 19.973,29.093 19.973,28.556 L19.973,20.972 L27.559,20.972 C28.096,20.972 28.531,20.537 28.531,20.000 C28.531,19.463 28.096,19.028 27.559,19.028 L27.559,19.028 Z"/>
</svg>