<svg 
 xmlns="http://www.w3.org/2000/svg"
 xmlns:xlink="http://www.w3.org/1999/xlink"
 width="38px" height="38px">
<path fill-rule="evenodd"  opacity="0" fill="rgb(255, 182, 182)"
 d="M-0.000,-0.000 L38.000,-0.000 L38.000,38.000 L-0.000,38.000 L-0.000,-0.000 Z"/>
<path fill-rule="evenodd"  fill="rgb(128, 128, 128)"
 d="M34.682,6.773 L11.338,28.107 C10.896,28.552 10.064,28.320 9.852,28.107 C9.428,27.680 9.428,27.040 9.852,26.613 L33.196,5.280 C33.621,4.853 34.257,4.853 34.682,5.280 C35.106,5.707 35.106,6.347 34.682,6.773 ZM24.000,6.000 L7.000,6.000 C5.302,6.000 4.000,7.293 4.000,9.000 L4.000,30.000 C4.000,31.707 5.302,34.000 7.000,34.000 L29.000,34.000 C30.697,34.000 32.000,32.707 32.000,31.000 L32.000,16.000 C32.000,15.360 32.353,14.969 32.973,14.829 C33.604,14.686 33.999,15.333 34.000,16.000 L34.000,31.000 C33.788,33.987 31.498,36.000 28.528,36.000 L7.000,36.000 C4.029,36.000 2.000,32.987 2.000,30.000 L2.000,9.000 C2.000,6.013 4.029,4.000 7.000,4.000 L24.000,4.000 C24.637,4.000 24.920,4.426 24.920,5.067 C24.920,5.707 24.637,6.000 24.000,6.000 Z"/>
</svg>