<svg 
 xmlns="http://www.w3.org/2000/svg"
 xmlns:xlink="http://www.w3.org/1999/xlink"
 width="28px" height="34px">
<path fill-rule="evenodd"  fill="rgb(255, 255, 255)"
 d="M23.799,14.167 L23.799,9.916 C23.799,9.916 23.798,-0.000 14.000,-0.000 C4.202,-0.000 4.201,9.916 4.201,9.916 L4.201,14.167 L0.000,14.167 L0.000,33.999 L28.000,33.999 L28.000,14.167 L23.799,14.167 ZM15.399,25.106 L15.399,29.749 L12.600,29.749 L12.600,25.106 C11.767,24.616 11.201,23.711 11.201,22.666 C11.201,21.100 12.455,19.832 14.000,19.832 C15.545,19.832 16.800,21.100 16.800,22.666 C16.801,23.711 16.234,24.616 15.399,25.106 M21.000,14.166 L7.000,14.166 L7.000,9.934 C7.015,8.748 7.428,2.833 14.000,2.833 C20.571,2.833 20.984,8.748 21.000,9.916 L21.000,14.166 Z"/>
</svg>