<svg 
 xmlns="http://www.w3.org/2000/svg"
 xmlns:xlink="http://www.w3.org/1999/xlink"
 width="127px" height="127px">
<path fill-rule="evenodd"  stroke-width="1px" stroke="rgb(255, 255, 255)" fill="none"
 d="M63.500,3.500 C96.637,3.500 123.500,30.363 123.500,63.499 C123.500,96.637 96.637,123.500 63.500,123.500 C30.363,123.500 3.500,96.637 3.500,63.499 C3.500,30.363 30.363,3.500 63.500,3.500 Z"/>
<path fill-rule="evenodd"  fill="rgb(255, 255, 255)"
 d="M89.071,85.419 L90.881,91.500 L84.280,87.845 C81.873,88.454 79.454,89.066 77.057,89.066 C65.606,89.066 56.586,81.154 56.586,71.409 C56.586,61.680 65.606,53.751 77.057,53.751 C87.873,53.751 97.501,61.680 97.501,71.409 C97.501,76.896 93.903,81.755 89.071,85.419 ZM70.421,63.496 C69.223,63.496 68.012,64.717 68.012,65.930 C68.012,67.159 69.223,68.364 70.421,68.364 C72.241,68.364 73.434,67.159 73.434,65.930 C73.434,64.717 72.241,63.496 70.421,63.496 ZM83.659,63.496 C82.468,63.496 81.268,64.717 81.268,65.930 C81.268,67.159 82.468,68.364 83.659,68.364 C85.464,68.364 86.672,67.159 86.672,65.930 C86.672,64.717 85.464,63.496 83.659,63.496 ZM55.072,71.701 C55.072,73.470 55.345,75.173 55.815,76.799 C55.072,76.858 54.323,76.896 53.568,76.896 C50.563,76.896 48.149,76.277 45.136,75.674 L36.724,79.941 L39.132,72.620 C33.105,68.364 29.499,62.877 29.499,56.193 C29.499,44.616 40.338,35.499 53.568,35.499 C65.403,35.499 75.771,42.783 77.853,52.588 C77.086,52.501 76.316,52.443 75.535,52.443 C64.101,52.443 55.072,61.071 55.072,71.701 ZM45.749,45.846 C43.945,45.846 42.124,47.051 42.124,48.883 C42.124,50.706 43.945,51.928 45.749,51.928 C47.553,51.928 48.754,50.706 48.754,48.883 C48.754,47.051 47.553,45.846 45.749,45.846 ZM62.593,45.846 C60.789,45.846 58.980,47.051 58.980,48.883 C58.980,50.706 60.789,51.927 62.593,51.927 C64.405,51.927 65.606,50.706 65.606,48.883 C65.606,47.051 64.405,45.846 62.593,45.846 Z"/>
</svg>