<svg 
 xmlns="http://www.w3.org/2000/svg"
 xmlns:xlink="http://www.w3.org/1999/xlink"
 width="28px" height="40px">
<path fill-rule="evenodd"  fill="rgb(255, 255, 255)"
 d="M12.003,33.746 C12.003,32.605 12.896,31.670 14.000,31.670 C15.103,31.670 15.997,32.605 15.997,33.746 C15.997,34.902 15.103,35.835 14.000,35.835 C12.897,35.835 12.003,34.902 12.003,33.746 L12.003,33.746 L12.003,33.746 ZM5.757,4.166 L22.246,4.166 C23.218,4.166 24.008,4.981 24.008,6.002 L24.008,26.501 C24.008,27.523 23.216,28.336 22.246,28.336 L5.757,28.336 C4.786,28.336 3.996,27.522 3.996,26.501 L3.996,6.002 C3.996,4.980 4.786,4.166 5.757,4.166 L5.757,4.166 L5.757,4.166 ZM0.001,36.665 C0.001,38.503 1.433,40.000 3.205,40.000 L24.810,40.000 C26.569,40.000 27.999,38.503 27.999,36.665 L27.999,3.335 C28.000,1.498 26.569,-0.000 24.810,-0.000 L3.205,-0.000 C1.433,-0.000 0.000,1.498 0.000,3.335 L0.001,36.665 L0.001,36.665 L0.001,36.665 Z"/>
</svg>