<?xml version="1.0" standalone="no"?><!DOCTYPE svg PUBLIC "-//W3C//DTD SVG 1.1//EN" "http://www.w3.org/Graphics/SVG/1.1/DTD/svg11.dtd"><svg t="1511236171828" class="icon" style="" viewBox="0 0 1024 1024" version="1.1" xmlns="http://www.w3.org/2000/svg" p-id="2914" xmlns:xlink="http://www.w3.org/1999/xlink" width="48" height="48"><defs><style type="text/css"></style></defs><path d="M365.9 550.2H139.7c-41.6 0-75.4 33.7-75.4 75.4v226.1c0 41.6 33.8 75.4 75.4 75.4h226.1c41.6 0 75.4-33.7 75.4-75.4V625.6c0-41.6-33.7-75.4-75.3-75.4z m0 256.3c0 25-20.3 45.2-45.2 45.2H184.9c-25 0-45.2-20.3-45.2-45.2V670.8c0-25 20.3-45.2 45.2-45.2h135.7c25 0 45.2 20.3 45.2 45.2v135.7z m452.2-256.3H592c-41.6 0-75.4 33.7-75.4 75.4v226.1c0 41.6 33.7 75.4 75.4 75.4h226.1c41.6 0 75.4-33.7 75.4-75.4V625.6c0-41.6-33.7-75.4-75.4-75.4z m0 256.3c0 25-20.3 45.2-45.2 45.2H637.2c-25 0-45.2-20.3-45.2-45.2V670.8c0-25 20.3-45.2 45.2-45.2h135.7c25 0 45.2 20.3 45.2 45.2v135.7zM365.9 97.9H139.7c-41.6 0-75.4 33.7-75.4 75.4v226.1c0 41.6 33.8 75.4 75.4 75.4h226.1c41.6 0 75.4-33.7 75.4-75.4V173.3c0-41.6-33.7-75.4-75.3-75.4z m0 256.3c0 25-20.3 45.2-45.2 45.2H184.9c-25 0-45.2-20.3-45.2-45.2V218.6c0-25 20.3-45.2 45.2-45.2h135.7c25 0 45.2 20.3 45.2 45.2v135.6zM818.1 97.9H592c-41.6 0-75.4 33.7-75.4 75.4v226.1c0 41.6 33.7 75.4 75.4 75.4h226.1c41.6 0 75.4-33.7 75.4-75.4V173.3c0-41.6-33.7-75.4-75.4-75.4z m0 256.3c0 25-20.3 45.2-45.2 45.2H637.2c-25 0-45.2-20.3-45.2-45.2V218.6c0-25 20.3-45.2 45.2-45.2h135.7c25 0 45.2 20.3 45.2 45.2v135.6z m0 0" fill="#ffffff" p-id="2915"></path></svg>