<svg 
 xmlns="http://www.w3.org/2000/svg"
 xmlns:xlink="http://www.w3.org/1999/xlink"
 width="9.525mm" height="9.525mm">
<path fill-rule="evenodd"  fill="rgb(169, 169, 169)"
 d="M22.841,0.546 L13.000,10.382 L3.172,0.546 C2.444,-0.182 1.274,-0.182 0.546,0.546 C-0.182,1.274 -0.182,2.443 0.546,3.170 L10.374,12.993 L0.546,22.829 C-0.182,23.557 -0.182,24.727 0.546,25.454 C1.273,26.182 2.444,26.182 3.172,25.454 L13.000,15.631 L22.828,25.454 C23.556,26.182 24.726,26.182 25.454,25.454 C26.182,24.727 26.182,23.557 25.454,22.829 L15.626,13.006 L25.454,3.183 C26.182,2.456 26.182,1.287 25.454,0.559 C24.739,-0.182 23.569,-0.182 22.841,0.546 L22.841,0.546 Z"/>
</svg>