<svg 
 xmlns="http://www.w3.org/2000/svg"
 xmlns:xlink="http://www.w3.org/1999/xlink"
 width="118px" height="142px">
<defs>
<linearGradient id="PSgrad_0" x1="0%" x2="89.101%" y1="0%" y2="45.399%">
  <stop offset="5%" stop-color="rgb(239,239,239)" stop-opacity="1" />
  <stop offset="27%" stop-color="rgb(211,211,211)" stop-opacity="1" />
  <stop offset="38%" stop-color="rgb(233,233,233)" stop-opacity="1" />
  <stop offset="41%" stop-color="rgb(255,255,255)" stop-opacity="1" />
  <stop offset="55%" stop-color="rgb(224,224,224)" stop-opacity="1" />
  <stop offset="100%" stop-color="rgb(192,192,192)" stop-opacity="1" />
</linearGradient>
<linearGradient id="PSgrad_1" x1="0%" x2="89.101%" y1="45.399%" y2="0%">
  <stop offset="5%" stop-color="rgb(201,201,201)" stop-opacity="1" />
  <stop offset="27%" stop-color="rgb(182,182,182)" stop-opacity="1" />
  <stop offset="38%" stop-color="rgb(199,199,199)" stop-opacity="1" />
  <stop offset="41%" stop-color="rgb(216,216,216)" stop-opacity="1" />
  <stop offset="55%" stop-color="rgb(193,193,193)" stop-opacity="1" />
  <stop offset="100%" stop-color="rgb(169,169,169)" stop-opacity="1" />
</linearGradient>

</defs>
<path fill-rule="evenodd"  fill="rgb(177, 177, 177)"
 d="M116.302,24.606 C114.981,24.136 113.522,24.839 113.044,26.177 L113.041,26.185 C112.561,27.523 113.244,28.990 114.565,29.461 C115.884,29.932 117.343,29.229 117.823,27.891 L117.825,27.883 C118.305,26.544 117.623,25.078 116.302,24.606 Z"/>
<path fill-rule="evenodd"  fill="rgb(193, 193, 193)"
 d="M96.305,12.683 C94.984,12.212 93.526,12.915 93.046,14.253 L93.043,14.262 C92.564,15.600 93.246,17.067 94.566,17.538 C95.887,18.009 97.346,17.306 97.824,15.967 L97.828,15.959 C98.307,14.621 97.625,13.154 96.305,12.683 Z"/>
<path fill-rule="evenodd"  fill="rgb(184, 184, 184)"
 d="M72.613,3.548 C71.292,3.077 69.833,3.780 69.354,5.118 L69.351,5.127 C68.872,6.465 69.554,7.932 70.874,8.403 C72.195,8.874 73.654,8.171 74.132,6.832 L74.136,6.824 C74.615,5.485 73.934,4.019 72.613,3.548 Z"/>
<path fill-rule="evenodd"  fill="rgb(189, 189, 189)"
 d="M48.541,0.121 C47.220,-0.351 45.762,0.352 45.282,1.691 L45.280,1.699 C44.800,3.038 45.482,4.504 46.803,4.975 C48.124,5.446 49.581,4.743 50.061,3.406 L50.064,3.396 C50.544,2.058 49.861,0.591 48.541,0.121 Z"/>
<path fill-rule="evenodd"  fill="rgb(252, 205, 40)"
 d="M55.985,29.975 C86.905,29.975 111.970,55.053 111.970,85.988 C111.970,116.923 86.905,142.000 55.985,142.000 C25.065,142.000 -0.000,116.923 -0.000,85.988 C-0.000,55.053 25.065,29.975 55.985,29.975 Z"/>
<path fill="url(#PSgrad_0)"
 d="M55.985,29.975 C86.905,29.975 111.970,55.053 111.970,85.988 C111.970,116.923 86.905,142.000 55.985,142.000 C25.065,142.000 -0.000,116.923 -0.000,85.988 C-0.000,55.053 25.065,29.975 55.985,29.975 Z"/>
<path fill-rule="evenodd"  fill="rgb(255, 177, 40)"
 d="M114.781,28.855 L98.374,48.324 L47.988,29.975 L47.988,4.970 L48.432,5.188 C48.432,5.188 49.800,11.835 56.638,14.275 C63.477,16.714 69.141,10.923 70.276,8.190 C71.876,8.651 72.070,8.829 72.070,8.829 C72.070,8.829 73.090,17.405 80.222,19.950 C87.354,22.493 93.589,16.505 93.589,16.505 L95.382,17.144 C95.382,17.144 93.069,24.215 99.893,29.019 C106.717,33.823 114.184,28.641 114.184,28.641 L114.781,28.855 Z"/>
<path fill="url(#PSgrad_0)"
 d="M114.781,28.855 L98.374,48.324 L47.988,29.975 L47.988,4.970 L48.432,5.188 C48.432,5.188 49.800,11.835 56.638,14.275 C63.477,16.714 69.141,10.923 70.276,8.190 C71.876,8.651 72.070,8.829 72.070,8.829 C72.070,8.829 73.090,17.405 80.222,19.950 C87.354,22.493 93.589,16.505 93.589,16.505 L95.382,17.144 C95.382,17.144 93.069,24.215 99.893,29.019 C106.717,33.823 114.184,28.641 114.184,28.641 L114.781,28.855 Z"/>
<path fill-rule="evenodd"  fill="rgb(240, 240, 240)"
 d="M77.702,23.600 C74.401,22.422 70.751,24.185 69.551,27.537 C68.351,30.889 70.055,34.560 73.356,35.738 C76.657,36.915 80.306,35.153 81.506,31.801 C82.706,28.450 81.002,24.778 77.702,23.600 Z"/>
<path fill-rule="evenodd"  fill="rgb(192, 192, 192)"
 d="M77.115,25.490 C74.628,24.617 71.881,25.924 70.978,28.411 C70.074,30.898 71.357,33.623 73.843,34.497 C76.328,35.371 79.076,34.062 79.979,31.575 C80.882,29.088 79.600,26.364 77.115,25.490 Z"/>
<path fill-rule="evenodd"  fill="rgb(233, 233, 233)"
 d="M94.111,32.470 C91.632,31.596 88.892,32.905 87.991,35.393 C87.090,37.882 88.370,40.609 90.848,41.482 C93.327,42.357 96.067,41.048 96.968,38.560 C97.868,36.071 96.590,33.345 94.111,32.470 Z"/>
<path fill-rule="evenodd"  fill="rgb(174, 174, 174)"
 d="M93.574,33.966 C91.910,33.381 90.072,34.256 89.467,35.919 C88.862,37.582 89.720,39.403 91.384,39.988 C93.048,40.572 94.887,39.697 95.491,38.035 C96.096,36.372 95.238,34.550 93.574,33.966 Z"/>
<path fill-rule="evenodd"  fill="rgb(240, 240, 240)"
 d="M61.087,20.317 C58.610,19.447 55.869,20.748 54.969,23.223 C54.067,25.699 55.346,28.409 57.825,29.279 C60.303,30.148 63.044,28.847 63.944,26.372 C64.845,23.897 63.567,21.186 61.087,20.317 Z"/>
<path fill-rule="evenodd"  fill="rgb(174, 174, 174)"
 d="M60.569,21.810 C58.918,21.230 57.094,22.098 56.494,23.748 C55.894,25.398 56.746,27.206 58.396,27.785 C60.047,28.365 61.871,27.497 62.471,25.847 C63.071,24.197 62.220,22.390 60.569,21.810 Z"/>
<path fill-rule="evenodd"  fill="rgb(252, 205, 40)"
 d="M98.974,45.979 L47.987,27.975 L47.987,30.976 L97.974,48.979 L98.974,45.979 Z"/>
<path fill="url(#PSgrad_1)"
 d="M98.974,45.979 L47.987,27.975 L47.987,30.976 L97.974,48.979 L98.974,45.979 Z"/>
</svg>