<svg 
 xmlns="http://www.w3.org/2000/svg"
 xmlns:xlink="http://www.w3.org/1999/xlink"
 width="28px" height="40px">
<path fill-rule="evenodd"  fill="rgb(160, 160, 160)"
 d="M12.003,33.746 C12.003,32.604 12.897,31.671 14.000,31.671 C15.102,31.671 15.997,32.604 15.997,33.746 C15.997,34.902 15.102,35.835 14.000,35.835 C12.898,35.835 12.003,34.902 12.003,33.746 L12.003,33.746 L12.003,33.746 ZM5.757,4.166 L22.246,4.166 C23.217,4.166 24.007,4.982 24.007,6.002 L24.007,26.501 C24.007,27.523 23.217,28.336 22.246,28.336 L5.757,28.336 C4.786,28.336 3.997,27.523 3.997,26.501 L3.997,6.002 C3.997,4.981 4.786,4.166 5.757,4.166 L5.757,4.166 L5.757,4.166 ZM0.001,36.666 C0.001,38.502 1.432,40.000 3.205,40.000 L24.810,40.000 C26.569,40.000 27.999,38.502 27.999,36.666 L27.999,3.335 C28.000,1.498 26.569,0.000 24.810,0.000 L3.205,0.000 C1.432,0.000 -0.000,1.498 -0.000,3.335 L0.001,36.666 L0.001,36.666 L0.001,36.666 Z"/>
</svg>