<svg 
 xmlns="http://www.w3.org/2000/svg"
 xmlns:xlink="http://www.w3.org/1999/xlink"
 width="28px" height="34px">
<path fill-rule="evenodd"  fill="rgb(160, 160, 160)"
 d="M23.799,14.167 L23.799,9.916 C23.799,9.916 23.798,0.000 14.000,0.000 C4.202,0.000 4.201,9.916 4.201,9.916 L4.201,14.167 L-0.000,14.167 L-0.000,34.000 L28.000,34.000 L28.000,14.167 L23.799,14.167 ZM21.000,14.166 L7.000,14.166 L7.000,9.934 C7.016,8.748 7.428,2.833 14.000,2.833 C20.572,2.833 20.985,8.748 21.000,9.916 L21.000,14.166 Z"/>
<path fill-rule="evenodd"  fill="rgb(255, 255, 255)"
 d="M13.421,28.607 C12.908,29.128 12.076,29.128 11.564,28.607 L7.383,24.354 C6.871,23.835 6.871,22.983 7.383,22.464 C7.895,21.945 8.727,21.945 9.240,22.464 L12.493,25.772 L18.761,19.388 C19.273,18.869 20.105,18.869 20.617,19.388 C21.129,19.907 21.129,20.760 20.617,21.279 L13.421,28.607 L13.421,28.607 Z"/>
</svg>